<svg xmlns="http://www.w3.org/2000/svg"
     viewBox="0 0 512 512"
     role="img"
     aria-labelledby="title desc">
  <title id="title">NEITLab favicon</title>
  <desc id="desc">NEITLab wordmark in a rounded dark blue-accented panel.</desc>

  <defs>
    <linearGradient id="panelGradient" x1="0" y1="0" x2="1" y2="1">
      <stop offset="0%" stop-color="#4ea1ff" stop-opacity="0.28"/>
      <stop offset="100%" stop-color="#4ea1ff" stop-opacity="0.04"/>
    </linearGradient>

    <linearGradient id="neitGradient" x1="0" y1="0" x2="0" y2="1">
      <stop offset="0%" stop-color="#9ed2ff"/>
      <stop offset="45%" stop-color="#4ea1ff"/>
      <stop offset="100%" stop-color="#1f5fb8"/>
    </linearGradient>

    <linearGradient id="labGradient" x1="0" y1="0" x2="0" y2="1">
      <stop offset="0%" stop-color="#e3e7ec"/>
      <stop offset="45%" stop-color="#bfc6cf"/>
      <stop offset="100%" stop-color="#9aa3ad"/>
    </linearGradient>
  </defs>

  <rect x="40" y="150" width="432" height="212" rx="68"
        fill="#0a0a0b"/>

  <rect x="46" y="156" width="420" height="200" rx="62"
        fill="url(#panelGradient)"
        stroke="#4ea1ff"
        stroke-opacity="0.24"
        stroke-width="4"/>

  <path d="M 5.011 0.000 L 16.589 0.000 L 16.589 25.424 C 16.589 28.690 16.257 34.627 15.841 41.301 C 19.261 34.402 21.304 30.352 24.379 25.389 L 40.268 0.000 L 52.915 0.000 L 52.915 55.290 L 41.337 55.290 L 41.337 28.761 C 41.337 25.128 41.634 19.190 42.049 13.763 C 39.639 19.523 37.299 23.714 35.102 27.312 L 17.622 55.290 L 5.011 55.290 L 5.011 0.000 Z M 62.939 0.000 L 100.013 0.000 L 100.013 9.393 L 74.256 9.393 L 74.256 23.311 L 98.006 23.311 L 98.006 32.549 L 74.256 32.549 L 74.256 45.909 L 99.941 45.909 L 99.941 55.290 L 62.939 55.290 L 62.939 0.000 Z M 120.420 55.290 L 109.103 55.290 L 109.103 0.000 L 120.420 0.000 L 120.420 55.290 Z M 128.208 45.909 L 145.130 45.909 L 145.130 0.000 L 156.495 0.000 L 156.495 45.909 L 173.381 45.909 L 173.381 55.290 L 128.208 55.290 L 128.208 45.909 Z"
        transform="translate(97.200 282.000) scale(1 -1)"
        fill="url(#neitGradient)"/>

  <path d="M 5.569 0.000 L 39.888 0.000 L 39.888 8.348 L 15.473 8.348 L 15.473 55.290 L 5.569 55.290 L 5.569 0.000 Z M 59.669 -0.855 C 66.129 -0.855 70.060 2.149 71.876 5.712 L 72.256 5.712 L 72.256 0.000 L 81.495 0.000 L 81.495 27.716 C 81.495 38.784 72.363 42.014 64.573 42.014 C 56.261 42.014 49.433 38.487 46.986 31.172 L 55.928 29.355 C 56.926 32.098 59.788 34.592 64.609 34.592 C 69.323 34.592 71.841 32.217 71.841 28.168 L 71.841 27.977 C 71.841 25.128 68.801 25.009 61.605 24.237 C 53.589 23.382 45.799 21.007 45.799 11.649 C 45.799 3.491 51.772 -0.855 59.669 -0.855 Z M 62.163 6.306 C 58.078 6.306 55.145 8.170 55.145 11.768 C 55.145 15.544 58.410 17.148 62.756 17.741 C 65.238 18.074 70.618 18.739 71.924 19.784 L 71.924 14.879 C 71.924 10.284 68.100 6.306 62.163 6.306 Z M 113.629 -0.748 C 123.461 -0.748 130.776 7.054 130.776 20.674 C 130.776 34.473 123.236 42.014 113.665 42.014 C 106.278 42.014 103.238 37.561 101.790 34.627 L 101.386 34.627 L 101.386 55.290 L 91.731 55.290 L 91.731 0.000 L 101.160 0.000 L 101.160 6.567 L 101.790 6.567 C 103.274 3.562 106.504 -0.748 113.629 -0.748 Z M 111.028 7.196 C 104.723 7.196 101.196 12.623 101.196 20.710 C 101.196 28.797 104.651 34.069 111.028 34.069 C 117.560 34.069 120.861 28.429 120.861 20.710 C 120.861 12.920 117.488 7.196 111.028 7.196 Z"
        transform="translate(279.012 282.000) scale(1 -1)"
        fill="url(#labGradient)"/>
</svg>
