<svg width="1200" height="800" viewBox="0 0 1200 800" fill="none" xmlns="http://www.w3.org/2000/svg">
  <rect width="1200" height="800" rx="32" fill="#0F1319"/>
  <g opacity="0.9">
    <circle cx="170" cy="160" r="18" stroke="#57A6FF" stroke-width="2"/>
    <circle cx="350" cy="110" r="14" stroke="#57A6FF" stroke-width="2"/>
    <circle cx="530" cy="180" r="18" stroke="#57A6FF" stroke-width="2"/>
    <circle cx="760" cy="130" r="22" stroke="#57A6FF" stroke-width="2"/>
    <circle cx="980" cy="220" r="16" stroke="#57A6FF" stroke-width="2"/>
    <circle cx="910" cy="470" r="18" stroke="#57A6FF" stroke-width="2"/>
    <circle cx="700" cy="610" r="15" stroke="#57A6FF" stroke-width="2"/>
    <circle cx="430" cy="560" r="20" stroke="#57A6FF" stroke-width="2"/>
    <circle cx="220" cy="640" r="16" stroke="#57A6FF" stroke-width="2"/>
  </g>
  <g opacity="0.4" stroke="#57A6FF" stroke-width="2">
    <path d="M170 160L350 110L530 180L760 130L980 220"/>
    <path d="M980 220L910 470L700 610L430 560L220 640"/>
    <path d="M350 110L430 560"/>
    <path d="M530 180L700 610"/>
    <path d="M760 130L910 470"/>
    <path d="M170 160L220 640"/>
  </g>
  <g opacity="0.08" fill="#57A6FF">
    <circle cx="850" cy="180" r="210"/>
    <circle cx="290" cy="600" r="160"/>
  </g>
</svg>
